<?xml version="1.0" encoding="iso-8859-1"?>
<!-- Generator: Adobe Illustrator 26.0.1, SVG Export Plug-In . SVG Version: 6.00 Build 0)  -->
<svg version="1.1" id="Layer_1" xmlns="http://www.w3.org/2000/svg" xmlns:xlink="http://www.w3.org/1999/xlink" x="0px" y="0px"
	 viewBox="0 0 500 500" style="enable-background:new 0 0 500 500;" xml:space="preserve">
<g id="watermark_1_">
	<g>
		<g id="watermark" style="opacity:0.61;">
			<g>
				<g>
					<g>
						<g>
							<polygon style="fill:#FFFFFF;" points="213.765,461.172 208.204,474.017 205.268,474.017 199.726,461.172 202.938,461.172 
								206.846,470.347 210.81,461.172 							"/>
						</g>
						<g>
							<path style="fill:#FFFFFF;" d="M223.507,469.741h-7.469c0.275,1.23,1.321,1.982,2.826,1.982c1.046,0,1.798-0.312,2.477-0.954
								l1.523,1.651c-0.917,1.046-2.294,1.597-4.074,1.597c-3.413,0-5.634-2.147-5.634-5.083c0-2.954,2.257-5.083,5.267-5.083
								c2.899,0,5.138,1.945,5.138,5.12C223.562,469.191,223.526,469.503,223.507,469.741 M216.002,468.071h4.863
								c-0.202-1.248-1.138-2.055-2.422-2.055C217.139,466.016,216.204,466.805,216.002,468.071"/>
						</g>
						<g>
							<path style="fill:#FFFFFF;" d="M224.735,468.934c0-2.973,2.294-5.083,5.505-5.083c2.074,0,3.707,0.899,4.423,2.514
								l-2.22,1.193c-0.532-0.936-1.321-1.358-2.221-1.358c-1.45,0-2.587,1.009-2.587,2.734c0,1.725,1.138,2.734,2.587,2.734
								c0.899,0,1.688-0.404,2.221-1.358l2.22,1.211c-0.716,1.578-2.349,2.495-4.423,2.495
								C227.029,474.017,224.735,471.907,224.735,468.934"/>
						</g>
						<g>
							<path style="fill:#FFFFFF;" d="M242.828,473.393c-0.587,0.422-1.45,0.624-2.331,0.624c-2.33,0-3.688-1.193-3.688-3.542
								v-4.055h-1.523v-2.202h1.523v-2.404h2.863v2.404h2.459v2.202h-2.459v4.019c0,0.844,0.458,1.303,1.229,1.303
								c0.422,0,0.844-0.128,1.156-0.367L242.828,473.393z"/>
						</g>
					</g>
					<g>
						<path style="fill:#FFFFFF;" d="M262.474,463.997v2.643c-0.238-0.018-0.422-0.037-0.642-0.037
							c-1.578,0-2.624,0.862-2.624,2.753v4.661h-2.863v-9.873h2.734v1.303C259.776,464.493,260.951,463.997,262.474,463.997"/>
					</g>
					<g>
						<path style="fill:#FFFFFF;" d="M263.299,472.53l1.009-2.239c1.083,0.789,2.697,1.339,4.239,1.339
							c1.762,0,2.477-0.587,2.477-1.376c0-2.404-7.469-0.752-7.469-5.524c0-2.184,1.762-4,5.413-4c1.615,0,3.267,0.385,4.459,1.138
							l-0.918,2.257c-1.193-0.679-2.422-1.009-3.56-1.009c-1.761,0-2.44,0.66-2.44,1.468c0,2.367,7.468,0.734,7.468,5.45
							c0,2.147-1.78,3.982-5.45,3.982C266.492,474.017,264.437,473.411,263.299,472.53"/>
					</g>
					<g>
						<path style="fill:#FFFFFF;" d="M285.428,469.741h-7.469c0.275,1.23,1.321,1.982,2.826,1.982c1.046,0,1.798-0.312,2.477-0.954
							l1.523,1.651c-0.918,1.046-2.294,1.597-4.074,1.597c-3.413,0-5.634-2.147-5.634-5.083c0-2.954,2.257-5.083,5.267-5.083
							c2.9,0,5.138,1.945,5.138,5.12C285.484,469.191,285.447,469.503,285.428,469.741 M277.923,468.071h4.863
							c-0.202-1.248-1.138-2.055-2.422-2.055C279.061,466.016,278.125,466.805,277.923,468.071"/>
					</g>
					<g>
						<path style="fill:#FFFFFF;" d="M297.007,469.741h-7.469c0.275,1.23,1.321,1.982,2.826,1.982c1.046,0,1.798-0.312,2.477-0.954
							l1.523,1.651c-0.918,1.046-2.294,1.597-4.074,1.597c-3.413,0-5.634-2.147-5.634-5.083c0-2.954,2.257-5.083,5.267-5.083
							c2.899,0,5.138,1.945,5.138,5.12C297.062,469.191,297.025,469.503,297.007,469.741 M289.501,468.071h4.863
							c-0.202-1.248-1.138-2.055-2.422-2.055C290.639,466.016,289.703,466.805,289.501,468.071"/>
					</g>
					<g>
						<polygon style="fill:#FFFFFF;" points="303.208,470.145 301.831,471.503 301.831,474.017 298.969,474.017 298.969,460.401 
							301.831,460.401 301.831,468.108 306.016,464.144 309.429,464.144 305.318,468.328 309.796,474.017 306.327,474.017 						"/>
					</g>
					<g>
						<path style="fill:#FFFFFF;" d="M256.601,475.359L256.601,475.359l-2.86-2.86c-0.435,0.508-0.953,0.943-1.534,1.284
							c-0.092,0.069-0.186,0.136-0.283,0.199l3.027,3.027c0.456,0.456,1.195,0.456,1.65,0
							C257.057,476.554,257.057,475.815,256.601,475.359"/>
					</g>
					<g>
						<path style="fill:#FFFFFF;" d="M249.984,463.244c0.221-0.173,0.495-0.281,0.797-0.281c0.042,0,0.083,0.002,0.124,0.006
							c-0.214-0.156-0.478-0.249-0.764-0.249c-0.395,0-0.744,0.18-0.981,0.458c-0.051,0-0.1,0.006-0.151,0.008
							c0.039-0.077,0.064-0.162,0.064-0.255c0-0.234-0.143-0.434-0.346-0.519c0.087,0.126,0.138,0.279,0.138,0.445
							c0,0.122-0.031,0.237-0.081,0.341c-2.811,0.201-5.03,2.539-5.03,5.4c0,2.993,2.426,5.42,5.42,5.42
							c2.993,0,5.42-2.426,5.42-5.42C254.595,465.879,252.593,463.635,249.984,463.244 M247.983,464.656
							c0.435,0,0.844,0.112,1.199,0.309c0.374-0.245,0.82-0.387,1.299-0.387c0.711,0,1.348,0.312,1.784,0.806
							c-0.435-0.379-1.004-0.61-1.627-0.61c-0.449,0-0.87,0.12-1.234,0.329c-0.079,0.046-0.156,0.096-0.229,0.15
							c-0.065-0.048-0.133-0.093-0.204-0.134c-0.369-0.219-0.8-0.344-1.26-0.344c-0.3,0-0.588,0.054-0.854,0.152
							C247.196,464.754,247.578,464.656,247.983,464.656 M251.772,469.098c0.115,0.305,0.181,0.634,0.181,0.979
							c0,1.534-1.244,2.777-2.778,2.777c-1.534,0-2.777-1.243-2.777-2.777c0-0.345,0.066-0.674,0.181-0.979
							c-0.62-0.382-1.035-1.064-1.035-1.846c0-1.197,0.971-2.168,2.168-2.168c0.565,0,1.078,0.218,1.463,0.572
							c0.386-0.354,0.899-0.572,1.464-0.572c1.197,0,2.168,0.971,2.168,2.168C252.807,468.034,252.392,468.716,251.772,469.098"/>
					</g>
					<g>
						<path style="fill:#FFFFFF;" d="M251.666,467.061c0,0.497-0.404,0.901-0.901,0.901c-0.497,0-0.901-0.404-0.901-0.901
							s0.404-0.901,0.901-0.901c0.101,0,0.197,0.017,0.287,0.047c-0.03,0.062-0.045,0.132-0.045,0.204
							c0,0.273,0.221,0.494,0.494,0.494c0.05,0,0.099-0.008,0.146-0.022C251.66,466.941,251.666,467,251.666,467.061"/>
					</g>
					<g>
						<path style="fill:#FFFFFF;" d="M248.255,467.061c0,0.376-0.305,0.681-0.681,0.681c-0.376,0-0.681-0.305-0.681-0.681
							s0.305-0.681,0.681-0.681c0.076,0,0.149,0.013,0.217,0.035c-0.023,0.047-0.034,0.1-0.034,0.155
							c0,0.206,0.167,0.374,0.374,0.374c0.038,0,0.075-0.006,0.11-0.017C248.25,466.97,248.255,467.015,248.255,467.061"/>
					</g>
					<g>
						<g>
							<g>
								<rect x="242.908" y="467.83" style="fill:#FFFFFF;" width="0.616" height="0.616"/>
							</g>
							<g>
								<rect x="254.827" y="467.83" style="fill:#FFFFFF;" width="0.616" height="0.616"/>
							</g>
							<g>
								<path style="fill:#FFFFFF;" d="M255.205,468.082h-0.14c0-3.248-2.642-5.89-5.89-5.89c-3.248,0-5.89,2.642-5.89,5.89h-0.14
									c0-1.611,0.627-3.125,1.766-4.264c1.139-1.139,2.653-1.766,4.264-1.766c1.611,0,3.125,0.627,4.264,1.766
									C254.578,464.957,255.205,466.471,255.205,468.082"/>
							</g>
						</g>
						<g>
							<rect x="248.868" y="461.814" style="fill:#FFFFFF;" width="0.616" height="0.616"/>
						</g>
						<g>
							<rect x="244.95" y="462.052" style="fill:#FFFFFF;" width="8.45" height="0.14"/>
						</g>
						<g>
							<path style="fill:#FFFFFF;" d="M245.174,462.15c0,0.108-0.088,0.196-0.196,0.196c-0.108,0-0.196-0.088-0.196-0.196
								c0-0.108,0.088-0.196,0.196-0.196C245.086,461.954,245.174,462.042,245.174,462.15"/>
						</g>
						<g>
							<path style="fill:#FFFFFF;" d="M253.596,462.15c0,0.108-0.088,0.196-0.196,0.196c-0.108,0-0.196-0.088-0.196-0.196
								c0-0.108,0.088-0.196,0.196-0.196C253.509,461.954,253.596,462.042,253.596,462.15"/>
						</g>
					</g>
				</g>
				<g>
					<path style="fill:#FFFFFF;" d="M314.356,473.409c0,1.559-2.364,1.559-2.364,0C311.993,471.851,314.356,471.851,314.356,473.409
						z"/>
				</g>
				<g>
					<g>
						<g>
							<path style="fill:#FFFFFF;" d="M161.739,466.549l1.772,6.088l1.855-6.088h2.215l-2.823,8.14h-2.33l-0.837-2.396l-0.722-2.708
								l-0.722,2.708l-0.837,2.396h-2.33l-2.839-8.14h2.231l1.855,6.088l1.756-6.088H161.739z"/>
						</g>
						<g>
							<path style="fill:#FFFFFF;" d="M176.713,466.549l1.772,6.088l1.855-6.088h2.215l-2.823,8.14h-2.33l-0.837-2.396l-0.722-2.708
								l-0.722,2.708l-0.837,2.396h-2.33l-2.839-8.14h2.231l1.855,6.088l1.756-6.088H176.713z"/>
						</g>
						<g>
							<path style="fill:#FFFFFF;" d="M191.687,466.549l1.772,6.088l1.855-6.088h2.215l-2.823,8.14h-2.33l-0.837-2.396l-0.722-2.708
								l-0.722,2.708l-0.837,2.396h-2.33l-2.839-8.14h2.231l1.855,6.088l1.756-6.088H191.687z"/>
						</g>
					</g>
					<g>
						<path style="fill:#FFFFFF;" d="M200.908,473.52c0,1.559-2.364,1.559-2.364,0C198.545,471.962,200.908,471.962,200.908,473.52z
							"/>
					</g>
					<g>
						<path style="fill:#FFFFFF;" d="M322.71,473.409c-0.935,0.919-1.919,1.28-3.117,1.28c-2.346,0-4.3-1.411-4.3-4.282
							s1.953-4.284,4.3-4.284c1.149,0,2.035,0.329,2.921,1.199l-1.264,1.329c-0.476-0.428-1.066-0.64-1.623-0.64
							c-1.346,0-2.33,0.985-2.33,2.396c0,1.542,1.05,2.362,2.297,2.362c0.64,0,1.28-0.18,1.772-0.672L322.71,473.409z"/>
					</g>
					<g>
						<path style="fill:#FFFFFF;" d="M331.805,470.472c0,2.33-1.591,4.217-4.217,4.217c-2.626,0-4.201-1.887-4.201-4.217
							c0-2.314,1.609-4.217,4.185-4.217C330.149,466.255,331.805,468.158,331.805,470.472z M325.389,470.472
							c0,1.231,0.739,2.38,2.199,2.38c1.46,0,2.199-1.149,2.199-2.38c0-1.215-0.854-2.396-2.199-2.396
							C326.144,468.077,325.389,469.258,325.389,470.472z"/>
					</g>
					<g>
						<path style="fill:#FFFFFF;" d="M338.572,474.689v-4.332c0-1.068-0.559-2.035-1.658-2.035c-1.082,0-1.722,0.967-1.722,2.035
							v4.332h-2.003v-8.107h1.855l0.148,0.985c0.426-0.82,1.362-1.116,2.133-1.116c0.969,0,1.937,0.394,2.396,1.51
							c0.723-1.149,1.658-1.478,2.708-1.478c2.297,0,3.43,1.412,3.43,3.84v4.365h-2.003v-4.365c0-1.066-0.442-1.97-1.526-1.97
							c-1.082,0-1.756,0.935-1.756,2.003v4.332H338.572z"/>
					</g>
				</g>
			</g>
		</g>
		<g style="opacity:0.61;">
			<g>
				<g>
					<path style="fill:#FFFFFF;" d="M345.988,431.299c-0.006-1.224-0.959-2.121-2.189-2.14c-0.924-0.014-0.832,0.12-0.834-0.867
						c-0.003-1.097-0.007-2.194,0.003-3.292c0.003-0.379-0.112-0.691-0.362-0.976c-2.342-2.668-4.678-5.342-7.019-8.011
						c-0.12-0.137-0.275-0.244-0.414-0.366c-6.214,0-12.427,0-18.641,0c-0.794,0.293-1.14,0.868-1.138,1.709
						c0.01,3.748,0.004,7.496,0.004,11.243c0,0.556-0.003,0.589-0.55,0.551c-1.497-0.102-2.516,0.986-2.497,2.492
						c0.044,3.476,0.013,6.953,0.014,10.429c0.001,1.58,0.867,2.443,2.45,2.449c0.582,0.002,0.582,0.002,0.582,0.6
						c0,2.219-0.001,4.438,0.001,6.657c0.001,1.192,0.58,1.771,1.768,1.771c8.013,0.001,16.027,0.001,24.04,0
						c1.168,0,1.755-0.583,1.757-1.745c0.002-2.256,0-4.512,0.001-6.768c0-0.512,0.002-0.511,0.52-0.515
						c0.271-0.002,0.541,0.008,0.809-0.058c0.996-0.246,1.69-1.044,1.694-2.069C346.003,438.696,346.005,434.997,345.988,431.299z
						 M317.537,417.162c5.337,0,10.674,0,16.01,0c0.548,0,0.554,0.007,0.554,0.561c0.001,2.243-0.001,4.486,0.001,6.73
						c0.001,0.811,0.249,1.059,1.06,1.059c1.91,0.001,3.821,0,5.731,0.001c0.458,0,0.479,0.021,0.481,0.483
						c0.003,0.887,0.002,1.775,0,2.662c-0.001,0.477-0.024,0.498-0.504,0.499c-3.895,0.001-7.79,0-11.684,0
						c-3.882,0-7.765,0-11.647,0c-0.55,0-0.552-0.001-0.552-0.561c-0.001-3.624-0.001-7.247,0-10.871
						C316.987,417.166,316.991,417.162,317.537,417.162z M340.822,451.579c-3.883,0.001-7.766,0-11.65,0c-3.871,0-7.742,0-11.613,0
						c-0.572,0-0.574-0.002-0.574-0.579c-0.001-1.997-0.001-3.994,0.001-5.991c0-0.464,0.023-0.486,0.478-0.487
						c7.803-0.001,15.607-0.001,23.41,0c0.478,0,0.499,0.02,0.499,0.503c0.002,1.997,0.001,3.994,0,5.991
						C341.375,451.574,341.37,451.579,340.822,451.579z"/>
				</g>
				<g>
					<g>
						<rect x="327.418" y="417.053" style="fill:#FFFFFF;" width="1.757" height="1.054"/>
					</g>
					<g>
						<rect x="325.662" y="418.107" style="fill:#FFFFFF;" width="1.757" height="1.054"/>
					</g>
					<g>
						<rect x="327.418" y="419.161" style="fill:#FFFFFF;" width="1.757" height="1.054"/>
					</g>
					<g>
						<rect x="325.662" y="420.215" style="fill:#FFFFFF;" width="1.757" height="1.054"/>
					</g>
					<g>
						<rect x="327.418" y="421.269" style="fill:#FFFFFF;" width="1.757" height="1.054"/>
					</g>
					<g>
						<rect x="325.662" y="422.323" style="fill:#FFFFFF;" width="1.757" height="1.054"/>
					</g>
					<g>
						<rect x="327.418" y="423.378" style="fill:#FFFFFF;" width="1.757" height="1.054"/>
					</g>
					<g>
						<rect x="325.662" y="424.432" style="fill:#FFFFFF;" width="1.757" height="1.054"/>
					</g>
					<g>
						<rect x="327.418" y="425.486" style="fill:#FFFFFF;" width="1.757" height="1.054"/>
					</g>
					<g>
						<rect x="325.662" y="426.54" style="fill:#FFFFFF;" width="1.757" height="1.054"/>
					</g>
					<g>
						<rect x="327.418" y="427.594" style="fill:#FFFFFF;" width="1.757" height="1.054"/>
					</g>
					<g>
						<rect x="325.662" y="428.648" style="fill:#FFFFFF;" width="1.757" height="1.054"/>
					</g>
				</g>
			</g>
			<g>
				<path style="fill:#FFFFFF;" d="M187.637,431.299c-0.006-1.224-0.959-2.121-2.189-2.14c-0.924-0.014-0.832,0.12-0.834-0.867
					c-0.003-1.097-0.007-2.194,0.003-3.292c0.003-0.379-0.112-0.691-0.362-0.976c-2.342-2.668-4.678-5.342-7.019-8.011
					c-0.12-0.137-0.275-0.244-0.414-0.366c-6.214,0-12.427,0-18.641,0c-0.794,0.293-1.14,0.868-1.138,1.709
					c0.01,3.748,0.004,7.496,0.004,11.243c0,0.556-0.003,0.589-0.55,0.551c-1.497-0.102-2.516,0.986-2.497,2.492
					c0.044,3.476,0.013,6.953,0.014,10.429c0.001,1.58,0.867,2.443,2.45,2.449c0.582,0.002,0.582,0.002,0.582,0.6
					c0,2.219-0.001,4.438,0.001,6.657c0.001,1.192,0.58,1.771,1.768,1.771c8.013,0.001,16.027,0.001,24.04,0
					c1.168,0,1.755-0.583,1.757-1.745c0.002-2.256,0-4.512,0.001-6.768c0-0.512,0.002-0.511,0.52-0.515
					c0.271-0.002,0.541,0.008,0.809-0.058c0.996-0.246,1.69-1.044,1.694-2.069C187.652,438.696,187.655,434.997,187.637,431.299z
					 M159.187,417.162c5.337,0,10.674,0,16.01,0c0.548,0,0.554,0.007,0.554,0.561c0.001,2.243-0.001,4.486,0.001,6.73
					c0.001,0.811,0.249,1.059,1.06,1.059c1.91,0.001,3.821,0,5.731,0.001c0.458,0,0.479,0.021,0.481,0.483
					c0.003,0.887,0.002,1.775,0,2.662c-0.001,0.477-0.024,0.498-0.504,0.499c-3.895,0.001-7.79,0-11.684,0
					c-3.882,0-7.765,0-11.647,0c-0.55,0-0.552-0.001-0.552-0.561c-0.001-3.624-0.001-7.247,0-10.871
					C158.636,417.166,158.64,417.162,159.187,417.162z M182.472,451.579c-3.883,0.001-7.766,0-11.65,0c-3.871,0-7.742,0-11.613,0
					c-0.572,0-0.574-0.002-0.574-0.579c-0.001-1.997-0.001-3.994,0.001-5.991c0-0.464,0.023-0.486,0.478-0.487
					c7.803-0.001,15.607-0.001,23.41,0c0.478,0,0.499,0.02,0.499,0.503c0.002,1.997,0.001,3.994,0,5.991
					C183.024,451.574,183.019,451.579,182.472,451.579z"/>
			</g>
			<g>
				<path style="fill:#FFFFFF;" d="M159.779,440.669v-7.897h2.779c0.375,0,0.726,0.061,1.053,0.182
					c0.327,0.121,0.612,0.292,0.855,0.513c0.242,0.221,0.434,0.483,0.573,0.789c0.14,0.305,0.21,0.642,0.21,1.009
					c0,0.375-0.07,0.715-0.21,1.02c-0.14,0.305-0.331,0.568-0.573,0.789c-0.243,0.221-0.528,0.392-0.855,0.513
					c-0.327,0.121-0.678,0.182-1.053,0.182h-1.29v2.901H159.779z M162.58,436.356c0.39,0,0.684-0.111,0.882-0.331
					c0.199-0.22,0.298-0.474,0.298-0.761c0-0.14-0.024-0.276-0.072-0.408c-0.048-0.132-0.121-0.248-0.221-0.347
					c-0.099-0.099-0.223-0.178-0.37-0.237c-0.147-0.059-0.32-0.089-0.518-0.089h-1.312v2.173H162.58z"/>
				<path style="fill:#FFFFFF;" d="M166.308,432.771h1.731l3.177,5.294h0.088l-0.088-1.522v-3.772h1.478v7.897h-1.566l-3.353-5.592
					h-0.088l0.088,1.522v4.07h-1.467V432.771z"/>
				<path style="fill:#FFFFFF;" d="M177.922,436.334h3.872c0.022,0.089,0.04,0.195,0.055,0.32c0.014,0.125,0.022,0.25,0.022,0.375
					c0,0.507-0.077,0.985-0.231,1.434c-0.154,0.449-0.397,0.849-0.728,1.202c-0.353,0.375-0.776,0.666-1.268,0.871
					c-0.493,0.206-1.055,0.309-1.688,0.309c-0.574,0-1.114-0.103-1.622-0.309c-0.507-0.206-0.948-0.492-1.323-0.86
					c-0.375-0.367-0.673-0.803-0.894-1.307c-0.221-0.504-0.331-1.053-0.331-1.649c0-0.595,0.11-1.145,0.331-1.649
					c0.221-0.504,0.518-0.939,0.894-1.307c0.375-0.367,0.816-0.654,1.323-0.86c0.507-0.206,1.048-0.309,1.622-0.309
					c0.64,0,1.211,0.11,1.715,0.331c0.504,0.221,0.935,0.526,1.296,0.915l-1.025,1.004c-0.258-0.272-0.544-0.48-0.861-0.623
					c-0.316-0.143-0.695-0.215-1.136-0.215c-0.361,0-0.703,0.065-1.026,0.193c-0.324,0.129-0.607,0.311-0.85,0.546
					c-0.242,0.235-0.436,0.52-0.579,0.855c-0.143,0.335-0.215,0.708-0.215,1.119c0,0.412,0.072,0.785,0.215,1.12
					c0.143,0.335,0.338,0.62,0.584,0.855c0.246,0.235,0.531,0.418,0.855,0.546c0.323,0.129,0.669,0.193,1.037,0.193
					c0.419,0,0.773-0.061,1.064-0.182c0.29-0.121,0.538-0.278,0.744-0.469c0.148-0.132,0.275-0.3,0.381-0.502
					c0.106-0.202,0.189-0.428,0.248-0.678h-2.482V436.334z"/>
			</g>
			<g>
				<path style="fill:#FFFFFF;" d="M224.019,431.299c-0.006-1.224-0.959-2.121-2.189-2.14c-0.924-0.014-0.832,0.12-0.834-0.867
					c-0.003-1.097-0.007-2.194,0.003-3.292c0.003-0.379-0.112-0.691-0.362-0.976c-2.342-2.668-4.678-5.342-7.019-8.011
					c-0.12-0.137-0.275-0.244-0.414-0.366c-6.214,0-12.427,0-18.641,0c-0.794,0.293-1.14,0.868-1.138,1.709
					c0.01,3.748,0.004,7.496,0.004,11.243c0,0.556-0.003,0.589-0.55,0.551c-1.497-0.102-2.516,0.986-2.497,2.492
					c0.044,3.476,0.013,6.953,0.014,10.429c0.001,1.58,0.867,2.443,2.45,2.449c0.582,0.002,0.582,0.002,0.582,0.6
					c0,2.219-0.001,4.438,0.001,6.657c0.001,1.192,0.58,1.771,1.768,1.771c8.013,0.001,16.027,0.001,24.04,0
					c1.168,0,1.755-0.583,1.757-1.745c0.002-2.256,0-4.512,0.001-6.768c0-0.512,0.002-0.511,0.52-0.515
					c0.271-0.002,0.541,0.008,0.809-0.058c0.997-0.246,1.69-1.044,1.694-2.069C224.034,438.696,224.036,434.997,224.019,431.299z
					 M195.568,417.162c5.337,0,10.674,0,16.01,0c0.548,0,0.554,0.007,0.554,0.561c0.001,2.243-0.001,4.486,0.001,6.73
					c0.001,0.811,0.249,1.059,1.06,1.059c1.91,0.001,3.821,0,5.731,0.001c0.458,0,0.479,0.021,0.481,0.483
					c0.003,0.887,0.002,1.775,0,2.662c-0.001,0.477-0.024,0.498-0.504,0.499c-3.895,0.001-7.79,0-11.684,0
					c-3.882,0-7.765,0-11.647,0c-0.55,0-0.552-0.001-0.552-0.561c-0.001-3.624-0.001-7.247,0-10.871
					C195.018,417.166,195.022,417.162,195.568,417.162z M218.854,451.579c-3.883,0.001-7.766,0-11.65,0c-3.871,0-7.742,0-11.613,0
					c-0.572,0-0.574-0.002-0.574-0.579c-0.001-1.997-0.001-3.994,0.001-5.991c0-0.464,0.023-0.486,0.478-0.487
					c7.803-0.001,15.607-0.001,23.41,0c0.478,0,0.499,0.02,0.499,0.503c0.002,1.997,0.001,3.994,0,5.991
					C219.406,451.574,219.401,451.579,218.854,451.579z"/>
			</g>
			<g>
				<path style="fill:#FFFFFF;" d="M205.111,432.771h1.699l2.967,7.897h-1.644l-0.651-1.886h-3.044l-0.651,1.886h-1.643
					L205.111,432.771z M206.997,437.415l-0.706-1.974l-0.287-0.96h-0.088l-0.287,0.96l-0.706,1.974H206.997z"/>
				<path style="fill:#FFFFFF;" d="M211.331,434.536c-0.125,0-0.245-0.024-0.359-0.072c-0.114-0.048-0.213-0.114-0.298-0.199
					c-0.084-0.084-0.151-0.182-0.198-0.292c-0.048-0.11-0.072-0.232-0.072-0.364s0.024-0.254,0.072-0.364
					c0.048-0.11,0.114-0.208,0.198-0.292c0.084-0.084,0.184-0.151,0.298-0.198c0.114-0.048,0.233-0.072,0.359-0.072
					c0.257,0,0.478,0.09,0.662,0.27c0.184,0.181,0.276,0.399,0.276,0.656s-0.092,0.476-0.276,0.656
					C211.809,434.446,211.589,434.536,211.331,434.536z M210.615,440.669v-5.404h1.445v5.404H210.615z"/>
			</g>
			<g>
				<path style="fill:#FFFFFF;" d="M261.044,431.299c-0.006-1.224-0.959-2.121-2.189-2.14c-0.924-0.014-0.832,0.12-0.834-0.867
					c-0.003-1.097-0.007-2.194,0.003-3.292c0.003-0.379-0.112-0.691-0.362-0.976c-2.342-2.668-4.678-5.342-7.019-8.011
					c-0.12-0.137-0.275-0.244-0.414-0.366c-6.214,0-12.427,0-18.641,0c-0.794,0.293-1.14,0.868-1.138,1.709
					c0.01,3.748,0.004,7.496,0.004,11.243c0,0.556-0.003,0.589-0.55,0.551c-1.497-0.102-2.516,0.986-2.497,2.492
					c0.044,3.476,0.013,6.953,0.014,10.429c0.001,1.58,0.867,2.443,2.45,2.449c0.582,0.002,0.582,0.002,0.582,0.6
					c0,2.219-0.001,4.438,0.001,6.657c0.001,1.192,0.58,1.771,1.768,1.771c8.013,0.001,16.027,0.001,24.04,0
					c1.168,0,1.755-0.583,1.757-1.745c0.002-2.256,0-4.512,0.001-6.768c0-0.512,0.002-0.511,0.52-0.515
					c0.271-0.002,0.541,0.008,0.809-0.058c0.996-0.246,1.69-1.044,1.694-2.069C261.059,438.696,261.061,434.997,261.044,431.299z
					 M232.593,417.162c5.337,0,10.674,0,16.01,0c0.548,0,0.554,0.007,0.554,0.561c0.001,2.243-0.001,4.486,0.001,6.73
					c0.001,0.811,0.249,1.059,1.06,1.059c1.91,0.001,3.821,0,5.731,0.001c0.458,0,0.479,0.021,0.481,0.483
					c0.003,0.887,0.002,1.775,0,2.662c-0.001,0.477-0.024,0.498-0.504,0.499c-3.895,0.001-7.79,0-11.684,0
					c-3.882,0-7.765,0-11.647,0c-0.55,0-0.552-0.001-0.552-0.561c-0.001-3.624-0.001-7.247,0-10.871
					C232.042,417.166,232.047,417.162,232.593,417.162z M255.878,451.579c-3.883,0.001-7.766,0-11.65,0c-3.871,0-7.742,0-11.613,0
					c-0.572,0-0.574-0.002-0.574-0.579c-0.001-1.997-0.001-3.994,0.001-5.991c0-0.464,0.023-0.486,0.478-0.487
					c7.803-0.001,15.607-0.001,23.41,0c0.478,0,0.499,0.02,0.499,0.503c0.002,1.997,0.001,3.994,0,5.991
					C256.431,451.574,256.426,451.579,255.878,451.579z"/>
			</g>
			<g>
				<path style="fill:#FFFFFF;" d="M236.361,440.845c-0.338,0-0.662-0.048-0.971-0.143c-0.309-0.095-0.592-0.239-0.849-0.43
					c-0.257-0.191-0.481-0.425-0.673-0.7c-0.191-0.276-0.342-0.597-0.452-0.965l1.401-0.551c0.103,0.397,0.283,0.726,0.54,0.987
					c0.257,0.261,0.596,0.392,1.015,0.392c0.154,0,0.303-0.02,0.447-0.061c0.143-0.04,0.272-0.099,0.386-0.176
					s0.204-0.175,0.27-0.292c0.066-0.118,0.099-0.254,0.099-0.408c0-0.147-0.026-0.279-0.077-0.397
					c-0.051-0.117-0.138-0.227-0.259-0.331c-0.121-0.103-0.28-0.202-0.475-0.298c-0.195-0.095-0.435-0.195-0.722-0.298l-0.485-0.176
					c-0.213-0.073-0.429-0.173-0.645-0.298c-0.217-0.125-0.413-0.276-0.59-0.452c-0.177-0.176-0.322-0.384-0.436-0.623
					c-0.114-0.239-0.171-0.509-0.171-0.81c0-0.309,0.06-0.597,0.182-0.866c0.121-0.268,0.294-0.503,0.518-0.706
					c0.224-0.202,0.492-0.36,0.805-0.474s0.66-0.171,1.042-0.171c0.397,0,0.74,0.053,1.031,0.16
					c0.291,0.107,0.537,0.243,0.739,0.408c0.202,0.165,0.366,0.348,0.491,0.546c0.125,0.199,0.217,0.386,0.276,0.563l-1.312,0.551
					c-0.074-0.221-0.208-0.419-0.402-0.596c-0.195-0.176-0.462-0.265-0.8-0.265c-0.324,0-0.592,0.075-0.805,0.226
					c-0.213,0.151-0.32,0.348-0.32,0.59c0,0.235,0.103,0.436,0.309,0.601c0.206,0.165,0.533,0.325,0.982,0.48l0.497,0.165
					c0.316,0.111,0.605,0.237,0.866,0.381c0.261,0.143,0.485,0.314,0.673,0.513c0.187,0.199,0.331,0.425,0.43,0.678
					c0.1,0.254,0.149,0.546,0.149,0.877c0,0.412-0.083,0.767-0.248,1.064c-0.165,0.298-0.377,0.542-0.634,0.734
					c-0.258,0.191-0.548,0.335-0.872,0.43C236.986,440.797,236.67,440.845,236.361,440.845z"/>
				<path style="fill:#FFFFFF;" d="M239.516,432.771h1.61l1.633,4.754l0.287,1.015h0.088l0.309-1.015l1.699-4.754h1.61l-2.879,7.897
					h-1.566L239.516,432.771z"/>
				<path style="fill:#FFFFFF;" d="M251.097,436.334h3.871c0.022,0.089,0.04,0.195,0.055,0.32c0.015,0.125,0.023,0.25,0.023,0.375
					c0,0.507-0.078,0.985-0.232,1.434c-0.154,0.449-0.397,0.849-0.728,1.202c-0.353,0.375-0.775,0.666-1.268,0.871
					c-0.493,0.206-1.055,0.309-1.688,0.309c-0.574,0-1.114-0.103-1.621-0.309c-0.507-0.206-0.949-0.492-1.324-0.86
					c-0.375-0.367-0.673-0.803-0.894-1.307c-0.22-0.504-0.331-1.053-0.331-1.649c0-0.595,0.11-1.145,0.331-1.649
					c0.221-0.504,0.518-0.939,0.894-1.307c0.375-0.367,0.816-0.654,1.324-0.86c0.507-0.206,1.047-0.309,1.621-0.309
					c0.64,0,1.211,0.11,1.715,0.331c0.504,0.221,0.936,0.526,1.296,0.915l-1.026,1.004c-0.257-0.272-0.544-0.48-0.861-0.623
					c-0.316-0.143-0.694-0.215-1.136-0.215c-0.36,0-0.702,0.065-1.026,0.193c-0.323,0.129-0.607,0.311-0.849,0.546
					c-0.243,0.235-0.436,0.52-0.579,0.855c-0.143,0.335-0.215,0.708-0.215,1.119c0,0.412,0.072,0.785,0.215,1.12
					c0.143,0.335,0.338,0.62,0.585,0.855c0.246,0.235,0.531,0.418,0.854,0.546c0.324,0.129,0.669,0.193,1.037,0.193
					c0.419,0,0.774-0.061,1.064-0.182c0.29-0.121,0.539-0.278,0.745-0.469c0.147-0.132,0.274-0.3,0.38-0.502
					c0.107-0.202,0.189-0.428,0.248-0.678h-2.482V436.334z"/>
			</g>
			<g>
				<path style="fill:#FFFFFF;" d="M297.3,431.299c-0.006-1.224-0.959-2.121-2.189-2.14c-0.924-0.014-0.832,0.12-0.834-0.867
					c-0.003-1.097-0.007-2.194,0.003-3.292c0.003-0.379-0.112-0.691-0.362-0.976c-2.342-2.668-4.678-5.342-7.019-8.011
					c-0.12-0.137-0.275-0.244-0.414-0.366c-6.214,0-12.427,0-18.641,0c-0.794,0.293-1.14,0.868-1.138,1.709
					c0.01,3.748,0.004,7.496,0.004,11.243c0,0.556-0.003,0.589-0.55,0.551c-1.497-0.102-2.516,0.986-2.497,2.492
					c0.044,3.476,0.013,6.953,0.014,10.429c0.001,1.58,0.867,2.443,2.45,2.449c0.582,0.002,0.582,0.002,0.582,0.6
					c0,2.219-0.001,4.438,0.001,6.657c0.001,1.192,0.58,1.771,1.768,1.771c8.013,0.001,16.027,0.001,24.04,0
					c1.168,0,1.755-0.583,1.757-1.745c0.002-2.256,0-4.512,0.001-6.768c0-0.512,0.002-0.511,0.52-0.515
					c0.271-0.002,0.541,0.008,0.809-0.058c0.996-0.246,1.69-1.044,1.694-2.069C297.315,438.696,297.318,434.997,297.3,431.299z
					 M268.85,417.162c5.337,0,10.674,0,16.01,0c0.548,0,0.554,0.007,0.554,0.561c0.001,2.243-0.001,4.486,0.001,6.73
					c0.001,0.811,0.249,1.059,1.06,1.059c1.91,0.001,3.821,0,5.731,0.001c0.458,0,0.479,0.021,0.481,0.483
					c0.003,0.887,0.002,1.775,0,2.662c-0.001,0.477-0.024,0.498-0.504,0.499c-3.895,0.001-7.79,0-11.684,0
					c-3.882,0-7.765,0-11.647,0c-0.55,0-0.552-0.001-0.552-0.561c-0.001-3.624-0.001-7.247,0-10.871
					C268.299,417.166,268.303,417.162,268.85,417.162z M292.135,451.579c-3.883,0.001-7.766,0-11.65,0c-3.871,0-7.742,0-11.613,0
					c-0.572,0-0.574-0.002-0.574-0.579c-0.001-1.997-0.001-3.994,0.001-5.991c0-0.464,0.023-0.486,0.478-0.487
					c7.803-0.001,15.607-0.001,23.41,0c0.478,0,0.499,0.02,0.499,0.503c0.001,1.997,0.001,3.994,0,5.991
					C292.687,451.574,292.682,451.579,292.135,451.579z"/>
			</g>
			<g>
				<path style="fill:#FFFFFF;" d="M272.966,434.183v1.831h3.165v1.412h-3.165v1.831h3.518v1.412h-5.007v-7.897h5.007v1.412H272.966
					z"/>
				<path style="fill:#FFFFFF;" d="M277.852,440.669v-7.897h2.779c0.375,0,0.726,0.061,1.053,0.182
					c0.327,0.121,0.612,0.292,0.855,0.513c0.243,0.221,0.434,0.483,0.574,0.789c0.14,0.305,0.209,0.642,0.209,1.009
					c0,0.375-0.07,0.715-0.209,1.02c-0.14,0.305-0.331,0.568-0.574,0.789c-0.243,0.221-0.528,0.392-0.855,0.513
					c-0.327,0.121-0.678,0.182-1.053,0.182h-1.29v2.901H277.852z M280.653,436.356c0.389,0,0.684-0.111,0.882-0.331
					c0.199-0.22,0.298-0.474,0.298-0.761c0-0.14-0.024-0.276-0.072-0.408c-0.048-0.132-0.121-0.248-0.221-0.347
					c-0.099-0.099-0.222-0.178-0.37-0.237c-0.147-0.059-0.32-0.089-0.518-0.089h-1.312v2.173H280.653z"/>
				<path style="fill:#FFFFFF;" d="M286.797,440.845c-0.338,0-0.662-0.048-0.971-0.143c-0.309-0.095-0.592-0.239-0.849-0.43
					c-0.257-0.191-0.482-0.425-0.673-0.7c-0.191-0.276-0.342-0.597-0.452-0.965l1.401-0.551c0.103,0.397,0.283,0.726,0.541,0.987
					c0.257,0.261,0.595,0.392,1.015,0.392c0.154,0,0.303-0.02,0.447-0.061c0.143-0.04,0.272-0.099,0.386-0.176
					c0.114-0.077,0.204-0.175,0.27-0.292c0.066-0.118,0.1-0.254,0.1-0.408c0-0.147-0.026-0.279-0.077-0.397
					c-0.051-0.117-0.138-0.227-0.259-0.331c-0.121-0.103-0.279-0.202-0.474-0.298c-0.195-0.095-0.436-0.195-0.723-0.298
					l-0.485-0.176c-0.213-0.073-0.428-0.173-0.645-0.298c-0.217-0.125-0.414-0.276-0.59-0.452c-0.176-0.176-0.322-0.384-0.436-0.623
					c-0.114-0.239-0.171-0.509-0.171-0.81c0-0.309,0.061-0.597,0.182-0.866c0.121-0.268,0.294-0.503,0.518-0.706
					c0.224-0.202,0.493-0.36,0.805-0.474c0.312-0.114,0.66-0.171,1.042-0.171c0.397,0,0.741,0.053,1.031,0.16
					c0.29,0.107,0.537,0.243,0.739,0.408c0.202,0.165,0.365,0.348,0.491,0.546c0.125,0.199,0.217,0.386,0.276,0.563l-1.312,0.551
					c-0.074-0.221-0.208-0.419-0.403-0.596c-0.195-0.176-0.462-0.265-0.799-0.265c-0.324,0-0.592,0.075-0.805,0.226
					c-0.213,0.151-0.32,0.348-0.32,0.59c0,0.235,0.103,0.436,0.309,0.601c0.206,0.165,0.533,0.325,0.982,0.48l0.496,0.165
					c0.316,0.111,0.605,0.237,0.866,0.381c0.261,0.143,0.485,0.314,0.673,0.513c0.187,0.199,0.331,0.425,0.43,0.678
					c0.099,0.254,0.149,0.546,0.149,0.877c0,0.412-0.083,0.767-0.248,1.064c-0.165,0.298-0.377,0.542-0.634,0.734
					c-0.258,0.191-0.548,0.335-0.872,0.43C287.422,440.797,287.105,440.845,286.797,440.845z"/>
			</g>
			<g>
				<path style="fill:#FFFFFF;" d="M321.394,439.168l4.004-4.985h-3.827v-1.412h5.559v1.5l-3.96,4.985h4.004v1.412h-5.779V439.168z"
					/>
				<path style="fill:#FFFFFF;" d="M328.409,432.771h1.489v7.897h-1.489V432.771z"/>
				<path style="fill:#FFFFFF;" d="M331.486,440.669v-7.897h2.779c0.375,0,0.726,0.061,1.053,0.182
					c0.327,0.121,0.612,0.292,0.855,0.513s0.434,0.483,0.574,0.789c0.14,0.305,0.209,0.642,0.209,1.009
					c0,0.375-0.07,0.715-0.209,1.02c-0.14,0.305-0.331,0.568-0.574,0.789c-0.243,0.221-0.528,0.392-0.855,0.513
					c-0.327,0.121-0.678,0.182-1.053,0.182h-1.29v2.901H331.486z M334.288,436.356c0.389,0,0.684-0.111,0.882-0.331
					c0.199-0.22,0.298-0.474,0.298-0.761c0-0.14-0.024-0.276-0.072-0.408c-0.048-0.132-0.121-0.248-0.221-0.347
					c-0.099-0.099-0.222-0.178-0.37-0.237c-0.147-0.059-0.32-0.089-0.518-0.089h-1.312v2.173H334.288z"/>
			</g>
		</g>
		<g style="opacity:0.61;">
			<path style="fill:#FFFFFF;" d="M300.133,433.27h9.067v2.242h-9.067V433.27z M300.133,437.136h9.067v2.243h-9.067V437.136z"/>
		</g>
	</g>
	<g style="opacity:0.61;">
		<path style="fill:#FFFFFF;" d="M156.756,478.878h1.607c1.263,0,2.114,0.812,2.114,1.974c0,1.161-0.851,1.973-2.114,1.973h-1.607
			V478.878z M158.34,482.464c1.049,0,1.725-0.665,1.725-1.612c0-0.947-0.677-1.613-1.725-1.613h-1.167v3.225H158.34z"/>
		<path style="fill:#FFFFFF;" d="M165.139,480.851c0-1.15,0.879-2.007,2.075-2.007c1.184,0,2.069,0.851,2.069,2.007
			c0,1.156-0.885,2.007-2.069,2.007C166.019,482.858,165.139,482.002,165.139,480.851z M168.866,480.851
			c0-0.942-0.705-1.635-1.652-1.635c-0.953,0-1.663,0.693-1.663,1.635c0,0.941,0.71,1.635,1.663,1.635
			C168.162,482.486,168.866,481.793,168.866,480.851z"/>
		<path style="fill:#FFFFFF;" d="M179.596,478.878l-1.331,3.947h-0.44l-1.156-3.366l-1.161,3.366h-0.434l-1.331-3.947h0.429
			l1.139,3.394l1.178-3.394h0.389l1.161,3.411l1.156-3.411H179.596z"/>
		<path style="fill:#FFFFFF;" d="M187.731,478.878v3.947h-0.344l-2.537-3.202v3.202h-0.417v-3.947h0.344l2.543,3.203v-3.203H187.731
			z"/>
		<path style="fill:#FFFFFF;" d="M193.093,478.878h0.417v3.586h2.21v0.361h-2.627V478.878z"/>
		<path style="fill:#FFFFFF;" d="M200.061,480.851c0-1.15,0.879-2.007,2.075-2.007c1.184,0,2.069,0.851,2.069,2.007
			c0,1.156-0.885,2.007-2.069,2.007C200.941,482.858,200.061,482.002,200.061,480.851z M203.788,480.851
			c0-0.942-0.705-1.635-1.652-1.635c-0.953,0-1.663,0.693-1.663,1.635c0,0.941,0.71,1.635,1.663,1.635
			C203.083,482.486,203.788,481.793,203.788,480.851z"/>
		<path style="fill:#FFFFFF;" d="M211.636,481.77h-2.199l-0.474,1.054h-0.434l1.804-3.947h0.412l1.804,3.947h-0.44L211.636,481.77z
			 M211.484,481.432l-0.947-2.12l-0.947,2.12H211.484z"/>
		<path style="fill:#FFFFFF;" d="M217.28,478.878h1.607c1.263,0,2.114,0.812,2.114,1.974c0,1.161-0.851,1.973-2.114,1.973h-1.607
			V478.878z M218.864,482.464c1.049,0,1.725-0.665,1.725-1.612c0-0.947-0.677-1.613-1.725-1.613h-1.167v3.225H218.864z"/>
		<path style="fill:#FFFFFF;" d="M234.041,481.77h-2.199l-0.474,1.054h-0.434l1.804-3.947h0.412l1.804,3.947h-0.44L234.041,481.77z
			 M233.889,481.432l-0.947-2.12l-0.947,2.12H233.889z"/>
		<path style="fill:#FFFFFF;" d="M239.685,478.878h0.417v3.586h2.21v0.361h-2.627V478.878z"/>
		<path style="fill:#FFFFFF;" d="M247.082,478.878h0.417v3.586h2.21v0.361h-2.627V478.878z"/>
		<path style="fill:#FFFFFF;" d="M260.449,479.239v1.551h2.041v0.361h-2.041v1.675h-0.417v-3.947h2.706v0.361H260.449z"/>
		<path style="fill:#FFFFFF;" d="M267.678,478.878h0.417v3.947h-0.417V478.878z"/>
		<path style="fill:#FFFFFF;" d="M273.456,478.878h0.417v3.586h2.21v0.361h-2.627V478.878z"/>
		<path style="fill:#FFFFFF;" d="M283.644,482.464v0.361h-2.791v-3.947h2.706v0.361h-2.289v1.404h2.041v0.355h-2.041v1.466H283.644z
			"/>
		<path style="fill:#FFFFFF;" d="M294.672,479.239v1.551h2.041v0.361h-2.041v1.675h-0.417v-3.947h2.706v0.361H294.672z"/>
		<path style="fill:#FFFFFF;" d="M301.5,480.851c0-1.15,0.879-2.007,2.075-2.007c1.184,0,2.069,0.851,2.069,2.007
			c0,1.156-0.885,2.007-2.069,2.007C302.379,482.858,301.5,482.002,301.5,480.851z M305.226,480.851
			c0-0.942-0.705-1.635-1.652-1.635c-0.953,0-1.663,0.693-1.663,1.635c0,0.941,0.71,1.635,1.663,1.635
			C304.522,482.486,305.226,481.793,305.226,480.851z"/>
		<path style="fill:#FFFFFF;" d="M313.351,482.825l-0.902-1.269c-0.102,0.011-0.203,0.017-0.316,0.017h-1.06v1.252h-0.417v-3.947
			h1.477c1.004,0,1.613,0.507,1.613,1.353c0,0.62-0.327,1.054-0.902,1.24l0.964,1.353H313.351z M313.328,480.231
			c0-0.632-0.417-0.992-1.207-0.992h-1.048v1.979h1.048C312.911,481.218,313.328,480.851,313.328,480.231z"/>
		<path style="fill:#FFFFFF;" d="M322.907,478.878v3.947h-0.4v-3.158l-1.551,2.656h-0.197l-1.551-2.639v3.14h-0.4v-3.947h0.344
			l1.714,2.926l1.697-2.926H322.907z"/>
		<path style="fill:#FFFFFF;" d="M330.744,481.77h-2.199l-0.473,1.054h-0.434l1.804-3.947h0.411l1.804,3.947h-0.44L330.744,481.77z
			 M330.592,481.432l-0.947-2.12l-0.947,2.12H330.592z"/>
		<path style="fill:#FFFFFF;" d="M336.957,479.239h-1.387v-0.361h3.192v0.361h-1.387v3.586h-0.417V479.239z"/>
		<path style="fill:#FFFFFF;" d="M343.063,482.346l0.164-0.321c0.282,0.276,0.784,0.479,1.302,0.479c0.739,0,1.06-0.31,1.06-0.699
			c0-1.083-2.43-0.417-2.43-1.877c0-0.581,0.451-1.083,1.455-1.083c0.446,0,0.908,0.13,1.224,0.35l-0.141,0.333
			c-0.338-0.22-0.733-0.327-1.083-0.327c-0.722,0-1.043,0.321-1.043,0.716c0,1.083,2.43,0.429,2.43,1.866
			c0,0.581-0.462,1.077-1.472,1.077C343.937,482.858,343.356,482.65,343.063,482.346z"/>
	</g>
</g>
<g>
</g>
<g>
	<path style="fill:#FFFF00;" d="M66.389,241.502c2.144-0.177,4.137,0.356,6.038,1.095c4.991,1.94,7.67,5.934,8.065,10.997
		c0.577,7.387,0.732,14.856-0.059,22.228c-1.051,9.785-7.034,15.687-16.252,18.426c-8.55,2.541-17.451,3.365-26.175,5.064
		c-3.34,0.651-6.722,1.112-10.035,1.876c-2.013,0.464-2.709-0.248-2.752-2.113c-0.056-2.383-0.205-4.765-0.206-7.148
		c-0.016-27.52-0.014-55.039-0.013-82.559c0-3.69,0.091-3.654,3.843-4.296c10.206-1.749,20.403-3.554,30.586-5.434
		c3.002-0.554,6.002-0.663,9.012-0.489c5.437,0.314,9.215,3.617,10.241,9.379c1.171,6.576,1.016,13.256,0.214,19.854
		c-0.82,6.748-5.097,10.655-11.507,12.416c-0.294,0.081-0.581,0.191-0.864,0.307C66.481,241.123,66.476,241.24,66.389,241.502z
		 M56.527,266.025c0.003,0,0.006,0,0.01,0c0-2.783-0.004-5.567,0.002-8.35c0.003-1.55-0.432-2.902-1.718-3.871
		c-1.628-1.226-3.391-0.962-5.081-0.268c-1.57,0.645-0.894,2.076-0.898,3.254c-0.008,2.154-0.054,4.308-0.067,6.462
		c-0.031,5.175-0.039,10.35-0.084,15.525c-0.015,1.717,0.903,2.12,2.4,1.884c3.124-0.494,5.287-2.901,5.415-6.285
		C56.611,271.595,56.527,268.809,56.527,266.025z M48.673,227.622c0.027,0,0.053,0,0.08,0c0,1.381,0.01,2.763-0.003,4.144
		c-0.013,1.462-0.091,2.925-0.063,4.386c0.043,2.243,0.682,2.683,2.882,2.082c2.887-0.789,4.749-2.877,4.886-6.008
		c0.165-3.765,0.068-7.542,0.047-11.314c-0.007-1.203-0.466-2.268-1.396-3.063c-1.57-1.343-3.39-1.41-5.226-0.771
		c-1.703,0.592-1.154,2.157-1.188,3.385C48.626,222.847,48.673,225.235,48.673,227.622z"/>
	<path style="fill:#FFFF00;" d="M208.399,221.141c0-8.267-0.243-16.543,0.068-24.798c0.318-8.441,2.969-16.097,9.549-21.894
		c4.708-4.147,10.408-6.233,16.406-7.712c4.787-1.181,9.641-1.508,14.489-0.955c7.572,0.864,12.638,5.008,14.939,12.348
		c1.07,3.412,1.642,6.93,1.654,10.49c0.054,15.142,0.164,30.287-0.029,45.427c-0.105,8.2-2.109,15.913-7.894,22.193
		c-3.38,3.67-7.545,6.127-12.202,7.749c-6.419,2.236-13.036,3.254-19.846,2.838c-8.759-0.535-14.918-6.606-16.605-16.306
		c-0.545-3.133-0.648-6.268-0.594-9.446c0.114-6.643,0.035-13.288,0.035-19.933C208.38,221.141,208.389,221.141,208.399,221.141z
		 M232.538,216.715c0,8.879-0.005,17.759,0.006,26.638c0.001,1.001-0.01,2.02,0.159,3c0.582,3.383,3.909,4.534,6.584,2.317
		c0.866-0.718,1.339-1.66,1.64-2.732c0.446-1.589,0.424-3.208,0.424-4.828c0-17.212,0.005-34.423-0.027-51.635
		c-0.003-1.378-0.149-2.784-0.446-4.128c-0.516-2.331-2.29-3.211-4.574-2.428c-2.655,0.911-3.734,2.657-3.75,6.464
		C232.517,198.494,232.543,207.605,232.538,216.715z"/>
	<path style="fill:#FFFF00;" d="M145.698,229.439c0.126-6.67-0.718-16.067,0.378-25.344c1.342-11.357,7.358-19.707,18.281-23.926
		c7.047-2.721,14.324-4.17,21.989-3.358c7.652,0.811,13.389,5.93,15.384,14.274c0.666,2.784,1.067,5.628,1.074,8.49
		c0.035,15.301,0.132,30.603-0.033,45.902c-0.077,7.134-1.722,13.949-6.107,19.834c-4.485,6.019-10.869,9.047-17.848,10.924
		c-6.54,1.759-13.214,2.779-19.912,0.833c-5.239-1.523-9.141-4.621-11.043-9.976c-1.442-4.06-2.135-8.216-2.153-12.493
		C145.675,247.103,145.698,239.607,145.698,229.439z M169.871,227.804c0.007,0,0.014,0,0.02,0c0,9.497-0.03,18.994,0.024,28.491
		c0.011,1.983,0.399,3.96,2.836,4.447c2.447,0.489,4.475-0.81,5.414-3.307c0.474-1.261,0.507-2.565,0.507-3.881
		c-0.004-17.918-0.002-35.836-0.015-53.754c-0.001-0.923-0.03-1.861-0.191-2.766c-0.269-1.518-0.947-2.85-2.564-3.277
		c-1.543-0.408-2.901,0.18-4.036,1.23c-1.591,1.474-2.017,3.37-2.01,5.471C169.888,209.574,169.871,218.689,169.871,227.804z"/>
	<path style="fill:#FFFF00;" d="M454.119,174.942c0-1.554,0-2.702,0-3.849c-0.004-12.601-0.009-25.203-0.012-37.804
		c-0.001-3.192,0.132-3.357,3.217-3.913c4.946-0.891,9.901-1.73,14.836-2.675c1.953-0.374,2.83,0.049,2.827,2.259
		c-0.046,30.227-0.036,60.454-0.011,90.682c0.001,1.644-0.498,2.534-2.266,2.832c-5.329,0.896-10.637,1.921-15.944,2.945
		c-1.897,0.366-2.655-0.574-3.091-2.233c-2.18-8.291-4.416-16.567-6.613-24.853c-1.823-6.873-3.615-13.754-5.434-20.628
		c-0.13-0.492-0.068-1.093-0.97-1.591c0,1.356-0.02,2.536,0.003,3.715c0.139,6.95,0.238,13.916,0.18,20.849
		c-0.071,8.492-0.019,16.993-0.179,25.488c-0.027,1.412-0.573,2.088-1.975,2.326c-5.489,0.931-10.968,1.921-16.447,2.912
		c-1.402,0.254-2.064-0.291-2.067-1.693c-0.001-0.618-0.014-1.237-0.014-1.855c-0.005-29.378-0.01-58.755-0.013-88.133
		c0-3.73,0.001-3.738,3.594-4.391c4.641-0.843,9.3-1.597,13.92-2.541c2.128-0.435,3.196,0.03,3.854,2.274
		c3.675,12.529,7.498,25.014,11.286,37.51C453.015,173.282,453.036,174.1,454.119,174.942z"/>
	<path style="fill:#FFFF00;" d="M128.193,232.818c2.897,0.422,5.636,0.677,7.878,2.696c3.665,3.301,4.191,7.642,4.174,12.087
		c-0.041,10.43-0.22,20.86,0.112,31.287c0.059,1.835-0.723,2.589-2.514,2.874c-5.88,0.935-11.74,1.993-17.601,3.04
		c-2.6,0.465-2.804,0.364-2.808-2.32c-0.018-11.052-0.005-22.104-0.017-33.155c-0.001-1.157,0.028-2.333-0.156-3.468
		c-0.544-3.35-3.355-4.947-6.574-3.873c-1.355,0.452-1.683,1.42-1.678,2.694c0.017,4.173,0.001,8.347,0.001,12.52
		c0.001,8.888-0.042,17.776,0.043,26.663c0.019,2.048-0.57,3.099-2.721,3.443c-6.031,0.966-12.03,2.131-18.052,3.159
		c-2.705,0.462-2.922,0.247-2.924-2.55c-0.016-26.972-0.017-53.943-0.033-80.915c-0.002-3.167-0.051-6.334-0.113-9.501
		c-0.025-1.275,0.21-2.378,1.674-2.62c12.647-2.096,25.128-5.389,37.99-5.925c8.793-0.367,13.188,3.465,14.126,12.173
		c0.618,5.741,0.563,11.573-0.097,17.349c-0.728,6.377-4.061,10.877-9.935,13.495c-0.206,0.092-0.394,0.23-0.579,0.362
		C128.34,232.368,128.333,232.463,128.193,232.818z M109.012,216.895c0.003,0,0.006,0,0.009,0c0,2.859-0.003,5.717,0.002,8.576
		c0.002,1.171,0.309,1.925,1.775,1.689c4.061-0.655,6.489-3.298,6.596-7.438c0.07-2.702,0.04-5.407,0.014-8.11
		c-0.04-4.152-1.754-5.684-5.881-5.56c-1.923,0.058-2.581,0.913-2.533,2.731C109.066,211.486,109.012,214.191,109.012,216.895z"/>
	<path style="fill:#FFFF00;" d="M294.933,193.266c1.347-4.879,2.709-9.753,4.036-14.637c1.803-6.635,3.599-13.273,5.355-19.921
		c0.417-1.579,1.222-2.572,2.915-2.86c6.02-1.023,12.021-2.155,18.048-3.137c2.563-0.418,2.765-0.157,1.974,2.401
		c-3.423,11.072-6.903,22.125-10.366,33.185c-0.485,1.548-0.906,3.123-1.502,4.628c-1.133,2.864-0.983,5.562-0.004,8.53
		c4.812,14.602,9.392,29.28,14.118,43.911c0.534,1.655,0.236,2.439-1.514,2.742c-7.163,1.239-14.319,2.518-21.473,3.809
		c-1.665,0.3-2.365-0.448-2.741-1.992c-2.045-8.409-4.153-16.802-6.242-25.2c-0.835-3.357-1.676-6.712-2.515-10.067
		c-0.223,0.007-0.446,0.014-0.669,0.021c0,2.608,0,5.216,0,7.823c0,9.507-0.048,19.014,0.036,28.52
		c0.019,2.129-0.524,3.205-2.83,3.559c-6.11,0.938-12.185,2.111-18.266,3.232c-1.485,0.274-2.249-0.178-2.224-1.738
		c0.004-0.232-0.005-0.464-0.01-0.695c-0.609-30.055-0.306-60.114-0.419-90.171c-0.008-2.079,0.657-3.064,2.777-3.399
		c6.107-0.967,12.202-2.029,18.272-3.206c2.208-0.428,2.688,0.389,2.678,2.383c-0.049,10.202-0.01,20.404,0.003,30.606
		c0.001,0.529,0.046,1.058,0.071,1.587C294.605,193.207,294.769,193.237,294.933,193.266z"/>
	<path style="fill:#FFFF00;" d="M389.189,178.221c1.828-12.041,3.649-23.78,5.353-35.537c0.242-1.671,0.867-2.418,2.52-2.69
		c5.949-0.977,11.874-2.102,17.822-3.089c2.462-0.409,2.614-0.213,1.972,2.182c-2.699,10.069-5.454,20.122-8.15,30.192
		c-1.598,5.967-3.107,11.957-4.693,17.927c-0.435,1.636-1.003,3.236-1.512,4.853c-1.585,5.04-2.503,10.133-2.32,15.484
		c0.289,8.482-0.161,16.982,0.363,25.463c0.123,1.983-0.954,2.568-2.56,2.841c-6.172,1.049-12.359,2.021-18.507,3.197
		c-2.109,0.404-2.565-0.312-2.553-2.215c0.051-8.34-0.314-16.697,0.111-25.016c0.352-6.891-1.933-13.082-3.808-19.416
		c-4.21-14.22-8.562-28.399-12.847-42.597c-0.864-2.862-0.684-3.187,2.204-3.713c5.325-0.969,10.661-1.871,15.987-2.837
		c3.271-0.593,3.702-0.322,4.316,2.995c1.812,9.796,3.611,19.595,5.453,29.385C388.488,176.419,388.379,177.319,389.189,178.221z"/>
	<path style="fill:#FFFF00;" d="M286.417,286.697c0,2.294,0.029,4.589-0.005,6.883c-0.153,10.352,0.256,20.695,0.538,31.039
		c0.058,2.114-0.69,3.057-2.778,3.366c-3.669,0.543-7.321,1.225-10.952,1.981c-2.066,0.43-2.597-0.407-2.582-2.295
		c0.05-6.568,0.009-13.136,0.004-19.704c-0.009-13.214,0.041-26.428-0.074-39.641c-0.021-2.454,0.858-3.453,3.202-3.782
		c3.826-0.537,7.641-1.202,11.42-2.006c1.736-0.369,2.701,0.09,3.599,1.578c6.625,10.985,13.315,21.93,19.99,32.884
		c0.477,0.783,0.995,1.54,1.629,2.518c0.765-1.126,0.176-2.101,0.197-3.003c0.27-11.821-0.511-23.627-0.559-35.445
		c-0.008-2.059,0.519-3.131,2.672-3.438c3.664-0.523,7.3-1.247,10.948-1.882c2.154-0.374,2.683,0.796,2.681,2.673
		c-0.01,8.344,0.048,16.688,0.053,25.031c0.006,11.282-0.011,22.563-0.025,33.845c-0.004,3.093-0.212,3.291-3.344,3.816
		c-3.889,0.652-7.783,1.284-11.65,2.05c-1.661,0.329-2.584-0.252-3.383-1.647c-5.07-8.851-10.409-17.54-15.837-26.176
		c-1.803-2.868-3.422-5.85-5.125-8.781C286.829,286.608,286.623,286.653,286.417,286.697z"/>
	<path style="fill:#FFFF00;" d="M399.922,283.963c0.493-3.181-0.029-5.615-0.088-8.059c-0.151-6.328-0.211-12.66-0.158-18.99
		c0.033-4.021-0.651-8.001-0.448-12.034c0.101-2.001,0.813-2.863,2.836-3.119c3.602-0.456,7.187-1.099,10.744-1.833
		c2.117-0.437,2.748,0.264,2.736,2.332c-0.057,9.661-0.012,19.323-0.005,28.985c0.007,10.124-0.072,20.25,0.077,30.372
		c0.037,2.514-0.913,3.384-3.224,3.699c-3.751,0.511-7.497,1.139-11.189,1.967c-1.942,0.435-2.96-0.119-3.942-1.761
		c-6.153-10.28-12.397-20.505-18.599-30.756c-0.826-1.366-1.993-2.499-2.503-4.56c-0.77,1.378-0.578,2.309-0.566,3.181
		c0.152,11.665,0.337,23.33,0.489,34.995c0.044,3.374,0.004,3.353-3.39,3.929c-2.745,0.466-5.49,0.943-8.217,1.505
		c-4.013,0.827-4.619,0.385-4.627-3.772c-0.025-13.064-0.027-26.127-0.037-39.191c-0.005-6.184,0.063-12.369-0.047-18.551
		c-0.039-2.204,0.742-3.233,2.946-3.537c3.903-0.538,7.793-1.205,11.66-1.96c1.759-0.344,2.787,0.036,3.767,1.664
		c6.617,10.994,13.351,21.917,20.053,32.859C398.625,282.038,399.104,282.722,399.922,283.963z"/>
	<path style="fill:#FFFF00;" d="M65.754,342.793c0-2.845,0.214-5.599-0.054-8.305c-0.337-3.4-0.264-6.793-0.339-10.189
		c-0.148-6.72-0.244-13.441-0.465-20.158c-0.066-2.005,0.543-2.864,2.668-3.097c3.607-0.396,7.167-1.206,10.757-1.784
		c2.559-0.412,2.794-0.208,2.8,2.435c0.029,12.06,0.033,24.121,0.046,36.181c0.008,7.731-0.048,15.463,0.061,23.193
		c0.03,2.13-0.773,3.088-2.812,3.412c-4.2,0.667-8.389,1.407-12.565,2.206c-1.51,0.289-2.059-0.613-2.682-1.647
		c-4.467-7.414-8.945-14.822-13.44-22.219c-2.6-4.279-5.24-8.534-7.966-12.971c-0.832,1.021-0.537,1.975-0.538,2.836
		c-0.021,11.436,0.677,22.863,0.483,34.303c-0.066,3.87,0.002,3.879-3.676,4.552c-3.272,0.599-6.558,1.129-9.818,1.785
		c-1.575,0.317-2.273-0.134-2.469-1.775c-0.203-1.7-0.402-3.37-0.078-5.069c0.547-2.863-0.213-5.698-0.214-8.55
		c-0.006-15.386-0.024-30.772-0.036-46.157c-0.003-3.216,0.027-3.199,3.293-3.742c3.509-0.583,7.036-1.112,10.492-1.929
		c2.346-0.554,3.679,0.081,4.921,2.15c6.607,11.003,13.346,21.926,20.058,32.866C64.523,341.678,64.658,342.442,65.754,342.793z"/>
	<path style="fill:#FFFF00;" d="M130.46,314.327c0,3.146-0.244,6.315,0.056,9.432c0.468,4.867,0.146,9.73,0.337,14.59
		c0.191,4.856-0.192,9.726,0.33,14.575c0.123,1.147-0.299,2.013-1.463,2.298c-4.362,1.068-8.808,1.68-13.24,2.36
		c-0.854,0.131-1.325-0.342-1.391-1.166c-0.062-0.769-0.063-1.544-0.064-2.316c-0.014-12.055,0.225-24.117-0.126-36.162
		c-0.214-7.339-0.056-14.673-0.302-22.004c-0.073-2.165,0.647-3.292,2.85-3.642c4.276-0.68,8.538-1.465,12.786-2.303
		c1.431-0.283,2.08,0.341,2.751,1.458c6.723,11.2,13.488,22.373,20.251,33.549c0.345,0.569,0.509,1.319,1.358,1.534
		c0.721-0.786,0.379-1.755,0.376-2.622c-0.048-11.355-0.423-22.702-0.843-34.049c-0.148-3.987-0.033-3.98,3.863-4.681
		c3.045-0.547,6.084-1.121,9.125-1.69c3.051-0.571,3.215-0.458,3.22,2.593c0.019,12.667-0.013,25.334,0.054,38
		c0.037,6.873,0.259,13.746,0.351,20.619c0.043,3.221-0.117,3.35-3.202,3.914c-3.804,0.695-7.63,1.292-11.399,2.139
		c-1.935,0.435-2.958-0.174-3.931-1.8c-6.749-11.277-13.575-22.507-20.384-33.748c-0.228-0.377-0.531-0.709-0.799-1.062
		C130.837,314.205,130.649,314.266,130.46,314.327z"/>
	<path style="fill:#FFFF00;" d="M331.007,199.562c0-14.763-0.001-29.526,0.001-44.289c0.001-3.504,0.002-3.526,3.422-4.145
		c6.001-1.087,12.023-2.072,18.005-3.252c2.109-0.416,2.81,0.178,2.789,2.276c-0.064,6.415-0.012,12.831-0.012,19.247
		c0.001,15.214,0.023,30.427-0.025,45.64c-0.008,2.465,0.43,4.917,0.067,7.395c-0.237,1.616,0.642,1.942,2.135,1.658
		c3.797-0.722,7.627-1.271,11.424-1.994c1.523-0.29,2.248,0.185,2.243,1.7c-0.017,5.092-0.046,10.184-0.099,15.276
		c-0.012,1.121-0.741,1.58-1.786,1.76c-7.155,1.235-14.305,2.494-21.457,3.747c-4.568,0.801-9.129,1.635-13.704,2.396
		c-2.838,0.472-2.981,0.33-2.983-2.66c-0.011-14.918-0.005-29.837-0.005-44.755C331.016,199.562,331.011,199.562,331.007,199.562z"
		/>
	<path style="fill:#FFFF00;" d="M423.87,270.391c0-9.815,0.051-19.631-0.039-29.446c-0.02-2.199,0.683-3.087,2.926-3.468
		c11.735-1.992,23.438-4.175,35.157-6.262c3.575-0.637,7.176-1.13,10.747-1.788c1.531-0.282,2.308,0.32,2.325,1.735
		c0.044,3.708-0.026,7.417-0.06,11.126c-0.015,1.599-1.235,1.751-2.399,1.959c-7.535,1.344-15.071,2.687-22.606,4.034
		c-2.429,0.434-4.85,0.917-7.286,1.305c-1.369,0.218-2.065,0.871-2.036,2.3c0.041,2.009,0.04,4.019,0.017,6.028
		c-0.019,1.603,0.722,1.932,2.215,1.659c8.444-1.543,16.904-3.004,25.354-4.514c3.197-0.571,3.529-0.331,3.543,2.858
		c0.011,2.628-0.014,5.256,0.009,7.883c0.012,1.368-0.553,2.151-1.955,2.397c-8.755,1.539-17.495,3.171-26.265,4.624
		c-2.05,0.34-3.057,1.03-2.914,3.232c0.144,2.232,0.117,4.484,0.015,6.721c-0.083,1.811,0.437,2.52,2.387,2.163
		c6.987-1.278,13.996-2.437,20.993-3.657c2.894-0.504,5.793-0.992,8.667-1.596c1.722-0.362,2.272,0.383,2.269,1.933
		c-0.007,3.323-0.058,6.648,0.028,9.97c0.047,1.799-0.695,2.71-2.442,3.016c-5.635,0.987-11.259,2.039-16.893,3.033
		c-9.588,1.69-19.178,3.37-28.773,5.02c-2.612,0.449-2.899,0.181-2.904-2.589c-0.018-9.892-0.007-19.785-0.007-29.677
		C423.917,270.391,423.894,270.391,423.87,270.391z"/>
	<path style="fill:#FFFF00;" d="M179.117,339.277c-0.8-18.157-0.246-36.324-0.443-54.486c-0.035-3.243,0.224-3.453,3.387-4.006
		c13.559-2.371,27.109-4.792,40.663-7.19c0.761-0.135,1.53-0.222,2.296-0.329c4.264-0.591,4.264-0.591,4.259,3.608
		c-0.003,2.552-0.09,5.107,0.018,7.653c0.09,2.113-0.841,3.088-2.867,3.431c-9.377,1.589-18.734,3.293-28.12,4.824
		c-2.026,0.331-3.147,0.964-2.935,3.205c0.138,1.456,0.016,2.936,0.043,4.405c0.044,2.441,0.523,2.917,2.914,2.508
		c5.866-1.003,11.717-2.097,17.575-3.143c2.817-0.503,5.653-0.906,8.452-1.493c1.765-0.37,2.208,0.375,2.186,1.934
		c-0.041,2.86-0.097,5.725,0.025,8.581c0.079,1.844-0.677,2.653-2.434,2.951c-6.329,1.075-12.646,2.224-18.967,3.347
		c-2.59,0.46-5.169,0.991-7.771,1.362c-1.465,0.209-1.974,0.973-1.959,2.337c0.025,2.397,0.078,4.796-0.01,7.19
		c-0.075,2.052,0.633,2.766,2.76,2.366c8.739-1.645,17.502-3.16,26.249-4.759c5.306-0.97,5.3-1.001,5.301,4.351
		c0,2.242-0.131,4.495,0.042,6.724c0.175,2.253-0.76,3.173-2.916,3.539c-10.828,1.838-21.64,3.771-32.456,5.68
		c-4.114,0.726-8.22,1.5-12.336,2.214c-2.82,0.489-2.935,0.373-2.956-2.398C179.108,342.216,179.117,340.746,179.117,339.277z"/>
	<path style="fill:#FFFF00;" d="M351.466,283.664c0,9.732-0.063,19.466,0.045,29.197c0.026,2.362-0.591,3.498-3.114,3.777
		c-3.448,0.382-6.851,1.179-10.272,1.807c-3.12,0.573-3.372,0.39-3.377-2.735c-0.026-18.074-0.039-36.149-0.065-54.223
		c-0.003-1.775,0.063-3.564-0.124-5.323c-0.194-1.83,0.66-2.504,2.287-2.775c3.886-0.648,7.764-1.347,11.64-2.055
		c2.383-0.435,2.904-0.066,2.91,2.437c0.023,9.964,0.01,19.928,0.01,29.892C351.426,283.664,351.446,283.664,351.466,283.664z"/>
	<path style="fill:#FFFF00;" d="M106.274,326.908c0,9.896-0.064,19.792,0.048,29.686c0.026,2.268-0.801,3.168-2.955,3.473
		c-3.674,0.52-7.318,1.246-10.976,1.883c-2.555,0.445-2.823,0.255-2.83-2.388c-0.033-13.528-0.045-27.056-0.055-40.585
		c-0.005-6.415,0.035-12.83-0.001-19.244c-0.01-1.707,0.426-2.685,2.373-2.957c3.9-0.544,7.781-1.277,11.634-2.095
		c2.113-0.449,2.754,0.229,2.74,2.309c-0.064,9.973-0.029,19.946-0.029,29.919C106.24,326.908,106.257,326.908,106.274,326.908z"/>
	<path style="fill:#FFFF00;" d="M263.212,298.969c-0.393,7.315,1.449,6.177-6.029,7.532c-6.227,1.128-12.462,2.218-18.688,3.352
		c-1.861,0.339-2.77-0.234-2.711-2.26c0.086-2.929,0.036-5.863,0.019-8.795c-0.008-1.38,0.577-2.066,2.002-2.305
		c7.534-1.264,15.063-2.563,22.575-3.948c2.008-0.37,2.966,0.105,2.846,2.263C263.149,296.19,263.212,297.581,263.212,298.969z"/>
</g>
</svg>
